<?xml version="1.0" encoding="UTF-8"?><svg xmlns="http://www.w3.org/2000/svg" xmlns:xlink="http://www.w3.org/1999/xlink" fill-opacity="1" color-rendering="auto" color-interpolation="auto" text-rendering="auto" stroke="black" stroke-linecap="square" width="370" stroke-miterlimit="10" shape-rendering="auto" stroke-opacity="1" fill="black" stroke-dasharray="none" font-weight="normal" stroke-width="1" height="365" font-family="'Dialog'" font-style="normal" stroke-linejoin="miter" font-size="12px" stroke-dashoffset="0" image-rendering="auto">
  <!--Generated by ySVG 2.6-->
  <defs id="genericDefs"/>
  <g>
    <defs id="defs1">
      <clipPath clipPathUnits="userSpaceOnUse" id="clipPath1">
        <path d="M0 0 L370 0 L370 365 L0 365 L0 0 Z"/>
      </clipPath>
      <clipPath clipPathUnits="userSpaceOnUse" id="clipPath2">
        <path d="M1030 311 L1400 311 L1400 676 L1030 676 L1030 311 Z"/>
      </clipPath>
    </defs>
    <g fill="white" text-rendering="geometricPrecision" shape-rendering="geometricPrecision" transform="translate(-1030,-311)" stroke="white">
      <rect x="1030" width="370" height="365" y="311" clip-path="url(#clipPath2)" stroke="none"/>
    </g>
    <g text-rendering="geometricPrecision" stroke-miterlimit="1.45" shape-rendering="geometricPrecision" transform="matrix(1,0,0,1,-1030,-311)" stroke-linecap="butt">
      <circle fill="none" r="15" clip-path="url(#clipPath2)" cx="1060" cy="341.4"/>
      <text x="1054.9946" font-size="18px" y="348.4708" clip-path="url(#clipPath2)" font-family="sans-serif" stroke="none" xml:space="preserve">0</text>
      <circle fill="none" r="15" clip-path="url(#clipPath2)" cx="1190" cy="341.4"/>
      <text x="1184.9946" font-size="18px" y="348.4708" clip-path="url(#clipPath2)" font-family="sans-serif" stroke="none" xml:space="preserve">1</text>
      <circle fill="none" r="15" clip-path="url(#clipPath2)" cx="1060" cy="465.4"/>
      <text x="1054.9946" font-size="18px" y="472.4708" clip-path="url(#clipPath2)" font-family="sans-serif" stroke="none" xml:space="preserve">5</text>
      <circle fill="none" r="15" clip-path="url(#clipPath2)" cx="1190" cy="465.4"/>
      <text x="1184.9946" font-size="18px" y="472.4708" clip-path="url(#clipPath2)" font-family="sans-serif" stroke="none" xml:space="preserve">7</text>
      <circle fill="none" r="15" clip-path="url(#clipPath2)" cx="1120" cy="403.4"/>
      <text x="1114.9946" font-size="18px" y="410.4708" clip-path="url(#clipPath2)" font-family="sans-serif" stroke="none" xml:space="preserve">2</text>
      <circle fill="none" r="15" clip-path="url(#clipPath2)" cx="1120" cy="585.4"/>
      <text x="1109.9893" font-size="18px" y="592.4708" clip-path="url(#clipPath2)" font-family="sans-serif" stroke="none" xml:space="preserve">11</text>
      <circle fill="none" r="15" clip-path="url(#clipPath2)" cx="1310" cy="403.4"/>
      <text x="1304.9946" font-size="18px" y="410.4708" clip-path="url(#clipPath2)" font-family="sans-serif" stroke="none" xml:space="preserve">4</text>
      <circle fill="none" r="15" clip-path="url(#clipPath2)" cx="1310" cy="585.4"/>
      <text x="1299.9893" font-size="18px" y="592.4708" clip-path="url(#clipPath2)" font-family="sans-serif" stroke="none" xml:space="preserve">13</text>
      <circle fill="none" r="15" clip-path="url(#clipPath2)" cx="1250" cy="525.4"/>
      <text x="1244.9946" font-size="18px" y="532.4708" clip-path="url(#clipPath2)" font-family="sans-serif" stroke="none" xml:space="preserve">8</text>
      <circle fill="none" r="15" clip-path="url(#clipPath2)" cx="1250" cy="645.4"/>
      <text x="1239.9893" font-size="18px" y="652.4708" clip-path="url(#clipPath2)" font-family="sans-serif" stroke="none" xml:space="preserve">14</text>
      <circle fill="none" r="15" clip-path="url(#clipPath2)" cx="1370" cy="525.4"/>
      <text x="1359.9893" font-size="18px" y="532.4708" clip-path="url(#clipPath2)" font-family="sans-serif" stroke="none" xml:space="preserve">10</text>
      <circle fill="none" r="15" clip-path="url(#clipPath2)" cx="1370" cy="645.4"/>
      <text x="1359.9893" font-size="18px" y="652.4708" clip-path="url(#clipPath2)" font-family="sans-serif" stroke="none" xml:space="preserve">15</text>
      <circle fill="none" r="15" clip-path="url(#clipPath2)" cx="1120" cy="465.4"/>
      <text x="1114.9946" font-size="18px" y="472.4708" clip-path="url(#clipPath2)" font-family="sans-serif" stroke="none" xml:space="preserve">6</text>
      <circle fill="none" r="15" clip-path="url(#clipPath2)" cx="1190" cy="403.4"/>
      <text x="1184.9946" font-size="18px" y="410.4708" clip-path="url(#clipPath2)" font-family="sans-serif" stroke="none" xml:space="preserve">3</text>
      <circle fill="none" r="15" clip-path="url(#clipPath2)" cx="1250" cy="585.4"/>
      <text x="1239.9893" font-size="18px" y="592.4708" clip-path="url(#clipPath2)" font-family="sans-serif" stroke="none" xml:space="preserve">12</text>
      <circle fill="none" r="15" clip-path="url(#clipPath2)" cx="1310" cy="525.4"/>
      <text x="1304.9946" font-size="18px" y="532.4708" clip-path="url(#clipPath2)" font-family="sans-serif" stroke="none" xml:space="preserve">9</text>
      <path fill="none" d="M1175 341.4 L1075 341.4" stroke-width="2" clip-path="url(#clipPath2)"/>
      <path fill="none" d="M1060 356.4 L1060 450.4" stroke-width="2" clip-path="url(#clipPath2)"/>
      <path fill="none" d="M1265 645.4 L1355 645.4" stroke-width="2" clip-path="url(#clipPath2)"/>
      <path fill="none" d="M1370 630.4 L1370 540.4" stroke-width="2" clip-path="url(#clipPath2)"/>
      <path fill="none" d="M1120 418.4 L1120 450.4" stroke-width="2" clip-path="url(#clipPath2)"/>
      <path fill="none" d="M1075 465.4 L1105 465.4" stroke-width="2" clip-path="url(#clipPath2)"/>
      <path fill="none" d="M1120 480.4 L1120 570.4" stroke-width="2" clip-path="url(#clipPath2)"/>
      <path fill="none" d="M1135 465.4 L1175 465.4" stroke-width="2" clip-path="url(#clipPath2)"/>
      <path fill="none" d="M1295 403.4 L1205 403.4" stroke-width="2" clip-path="url(#clipPath2)"/>
      <path fill="none" d="M1190 450.4 L1190 418.4" stroke-width="2" clip-path="url(#clipPath2)"/>
      <path fill="none" d="M1175 403.4 L1135 403.4" stroke-width="2" clip-path="url(#clipPath2)"/>
      <path fill="none" d="M1190 388.4 L1190 356.4" stroke-width="2" clip-path="url(#clipPath2)"/>
      <path fill="none" d="M1250 540.4 L1250 570.4" stroke-width="2" clip-path="url(#clipPath2)"/>
      <path fill="none" d="M1135 585.4 L1235 585.4" stroke-width="2" clip-path="url(#clipPath2)"/>
      <path fill="none" d="M1250 600.4 L1250 630.4" stroke-width="2" clip-path="url(#clipPath2)"/>
      <path fill="none" d="M1265 585.4 L1295 585.4" stroke-width="2" clip-path="url(#clipPath2)"/>
      <path fill="none" d="M1355 525.4 L1325 525.4" stroke-width="2" clip-path="url(#clipPath2)"/>
      <path fill="none" d="M1310 570.4 L1310 540.4" stroke-width="2" clip-path="url(#clipPath2)"/>
      <path fill="none" d="M1295 525.4 L1265 525.4" stroke-width="2" clip-path="url(#clipPath2)"/>
      <path fill="none" d="M1310 510.4 L1310 418.4" stroke-width="2" clip-path="url(#clipPath2)"/>
    </g>
  </g>
</svg>
